<?xml version="1.0" encoding="UTF-8" standalone="no"?>
<!-- Generator: Adobe Illustrator 16.0.0, SVG Export Plug-In . SVG Version: 6.00 Build 0)  -->

<svg
   xmlns:dc="http://purl.org/dc/elements/1.1/"
   xmlns:cc="http://creativecommons.org/ns#"
   xmlns:rdf="http://www.w3.org/1999/02/22-rdf-syntax-ns#"
   xmlns:svg="http://www.w3.org/2000/svg"
   xmlns="http://www.w3.org/2000/svg"
   xmlns:sodipodi="http://sodipodi.sourceforge.net/DTD/sodipodi-0.dtd"
   xmlns:inkscape="http://www.inkscape.org/namespaces/inkscape"
   version="1.1"
   x="0px"
   y="0px"
   width="361px"
   height="361px"
   viewBox="0 0 361 361"
   style="enable-background:new 0 0 361 361;"
   xml:space="preserve"
   id="svg730"
   sodipodi:docname="audio_mic.svg"
   inkscape:version="0.92.4 (5da689c313, 2019-01-14)"><metadata
   id="metadata736"><rdf:RDF><cc:Work
       rdf:about=""><dc:format>image/svg+xml</dc:format><dc:type
         rdf:resource="http://purl.org/dc/dcmitype/StillImage" /><dc:title></dc:title></cc:Work></rdf:RDF></metadata><defs
   id="defs734" /><sodipodi:namedview
   pagecolor="#ffffff"
   bordercolor="#666666"
   borderopacity="1"
   objecttolerance="10"
   gridtolerance="10"
   guidetolerance="10"
   inkscape:pageopacity="0"
   inkscape:pageshadow="2"
   inkscape:window-width="3840"
   inkscape:window-height="2028"
   id="namedview732"
   showgrid="false"
   inkscape:zoom="4.7119114"
   inkscape:cx="180.5"
   inkscape:cy="180.5"
   inkscape:window-x="-16"
   inkscape:window-y="-16"
   inkscape:window-maximized="1"
   inkscape:current-layer="audio_x5F_mic" />
<g
   id="audio_x5F_mic_x5F_mute"
   style="display:inline">
	
	<g
   id="g704">
		<g
   id="g702">
			<path
   style="fill:#ffffff"
   d="m 102.486,291.667 c 27.5,0 55,0 82.5,0 6.448,0 6.448,-10 0,-10 -27.5,0 -55,0 -82.5,0 -6.449,0 -6.449,10 0,10 z"
   id="path700"
   inkscape:connector-curvature="0" />
		</g>
	</g>
	
	
	
<g
   transform="translate(-37)"
   id="audio_x5F_mic"><g
     style="display:none"
     id="g794"><g
       style="display:inline"
       id="g786"><g
         id="g784"><path
           inkscape:connector-curvature="0"
           style="fill:#ffffff"
           d="m 276.033,227.524 c -0.264,21.84 -14.327,41.07 -35.273,47.551 -20.997,6.497 -44.063,-2.393 -55.993,-20.611 -12.03,-18.37 -9.941,-43.151 4.399,-59.6 14.372,-16.485 38.711,-21.485 58.468,-12.16 17.335,8.183 28.17,25.791 28.399,44.82 0.117,9.678 15.12,9.774 15.004,0.107 -0.285,-23.601 -12.93,-45.152 -33.556,-56.708 -20.663,-11.576 -46.938,-10.132 -66.614,2.754 -19.622,12.85 -30.717,36.129 -28.741,59.425 1.966,23.186 16.774,44.003 38.044,53.442 20.025,8.888 43.533,6.932 61.856,-5.067 18.09,-11.847 28.75,-32.366 29.01,-53.847 0.118,-9.69 -14.886,-9.764 -15.003,-0.106 z"
           id="path782" /></g></g><g
       style="display:inline"
       id="g792"><g
         id="g790"><path
           inkscape:connector-curvature="0"
           style="fill:#ffffff"
           d="m 191.411,273.221 c 26.912,-26.912 53.824,-53.824 80.737,-80.736 6.835,-6.835 -3.813,-17.403 -10.666,-10.551 -26.912,26.912 -53.824,53.824 -80.737,80.736 -6.835,6.835 3.813,17.403 10.666,10.551 z"
           id="path788" /></g></g></g><path
     inkscape:connector-curvature="0"
     style="fill:none;stroke:#ffffff;stroke-width:10;stroke-miterlimit:10"
     d="m 222.236,211.448 c 0,17.793 -14.428,32.22 -32.221,32.22 h -18.56 c -17.795,0 -32.22,-14.427 -32.22,-32.22 V 106.887 c 0,-17.795 14.425,-32.22 32.22,-32.22 h 18.56 c 17.793,0 32.221,14.425 32.221,32.22 z"
     id="path796" /><g
     id="g802"><g
       id="g800"><path
         inkscape:connector-curvature="0"
         style="fill:#ffffff"
         d="m 175.736,260.167 c 0,8.833 0,17.667 0,26.5 0,6.448 10,6.448 10,0 0,-8.833 0,-17.667 0,-26.5 0,-6.448 -10,-6.448 -10,0 z"
         id="path798" /></g></g><g
     id="g814"><g
       id="g812"><path
         inkscape:connector-curvature="0"
         style="fill:#ffffff"
         d="m 234.264,180.048 c 0,11.671 0,23.343 0,35.014 0,21.428 -16.708,39.1 -38.161,40.084 -6.092,0.28 -12.246,0.021 -18.342,0.021 -6.824,0 -13.753,0.423 -20.445,-1.132 -10.741,-2.496 -19.672,-9.772 -25.138,-19.209 -4.016,-6.933 -4.969,-14.572 -4.969,-22.416 0,-10.787 0,-21.575 0,-32.362 0,-6.449 -10,-6.449 -10,0 0,11.671 0,23.343 0,35.014 0,21.146 12.904,39.296 32.401,47.037 13.3,5.28 29.998,3.068 44.011,3.068 20.506,0 39.433,-11.895 47.09,-31.183 3.802,-9.573 3.554,-19.325 3.554,-29.39 0,-8.183 0,-16.364 0,-24.547 -10e-4,-6.448 -10.001,-6.448 -10.001,0.001 z"
         id="path810" /></g></g></g></g><g
   inkscape:groupmode="layer"
   id="layer1"
   inkscape:label="Layer 1" />
<g
   id="Ebene_1">
</g>
</svg>