<?xml version="1.0" encoding="UTF-8" standalone="no"?>
<!-- Generator: Adobe Illustrator 16.0.0, SVG Export Plug-In . SVG Version: 6.00 Build 0)  -->

<svg
   xmlns:dc="http://purl.org/dc/elements/1.1/"
   xmlns:cc="http://creativecommons.org/ns#"
   xmlns:rdf="http://www.w3.org/1999/02/22-rdf-syntax-ns#"
   xmlns:svg="http://www.w3.org/2000/svg"
   xmlns="http://www.w3.org/2000/svg"
   xmlns:sodipodi="http://sodipodi.sourceforge.net/DTD/sodipodi-0.dtd"
   xmlns:inkscape="http://www.inkscape.org/namespaces/inkscape"
   version="1.1"
   x="0px"
   y="0px"
   width="361px"
   height="361px"
   viewBox="0 0 361 361"
   style="enable-background:new 0 0 361 361;"
   xml:space="preserve"
   id="svg220"
   sodipodi:docname="control_zoom_out_alt.svg"
   inkscape:version="0.92.4 (5da689c313, 2019-01-14)"><metadata
   id="metadata226"><rdf:RDF><cc:Work
       rdf:about=""><dc:format>image/svg+xml</dc:format><dc:type
         rdf:resource="http://purl.org/dc/dcmitype/StillImage" /><dc:title></dc:title></cc:Work></rdf:RDF></metadata><defs
   id="defs224" /><sodipodi:namedview
   pagecolor="#ffffff"
   bordercolor="#666666"
   borderopacity="1"
   objecttolerance="10"
   gridtolerance="10"
   guidetolerance="10"
   inkscape:pageopacity="0"
   inkscape:pageshadow="2"
   inkscape:window-width="3840"
   inkscape:window-height="2028"
   id="namedview222"
   showgrid="false"
   inkscape:zoom="4.7119114"
   inkscape:cx="255.47952"
   inkscape:cy="156.16839"
   inkscape:window-x="-16"
   inkscape:window-y="-16"
   inkscape:window-maximized="1"
   inkscape:current-layer="control_x5F_zoom_x5F_in" />
<g
   id="control_x5F_zoom_x5F_in">
	<g
   id="g204">
		<path
   style="fill:none;stroke:#FFFFFF;stroke-width:10;stroke-miterlimit:10;"
   d="M153.274,184.758    c0,13.205,10.707,23.91,23.91,23.91h85.014c13.206,0,23.91-10.705,23.91-23.91V99.743c0-13.205-10.704-23.91-23.91-23.91h-85.014    c-13.203,0-23.91,10.705-23.91,23.91V184.758z"
   id="path200" />
		<path
   style="fill:none;stroke:#FFFFFF;stroke-width:10;stroke-miterlimit:10;"
   d="M153.7,189.242l-75.863,75.862    c-2.892,2.892-2.892,7.582,0,10.474l8.728,8.728c2.893,2.893,7.581,2.893,10.474,0l76.003-76.003"
   id="path202" />
	</g>
	<g
   id="g210">
		<g
   id="g208">
			<path
   style="fill:#FFFFFF;"
   d="M255.779,134.666c-23.905,0-47.812,0-71.718,0c-9.686,0-9.771,15.003-0.107,15.003     c23.905,0,47.812,0,71.718,0C265.357,149.668,265.443,134.666,255.779,134.666L255.779,134.666z"
   id="path206" />
		</g>
	</g>
	
</g>
<g
   id="Ebene_1">
</g>
</svg>