<?xml version="1.0" encoding="UTF-8" standalone="no"?>
<!-- Generator: Adobe Illustrator 16.0.0, SVG Export Plug-In . SVG Version: 6.00 Build 0)  -->

<svg
   xmlns:dc="http://purl.org/dc/elements/1.1/"
   xmlns:cc="http://creativecommons.org/ns#"
   xmlns:rdf="http://www.w3.org/1999/02/22-rdf-syntax-ns#"
   xmlns:svg="http://www.w3.org/2000/svg"
   xmlns="http://www.w3.org/2000/svg"
   xmlns:sodipodi="http://sodipodi.sourceforge.net/DTD/sodipodi-0.dtd"
   xmlns:inkscape="http://www.inkscape.org/namespaces/inkscape"
   version="1.1"
   x="0px"
   y="0px"
   width="361px"
   height="361px"
   viewBox="0 0 361 361"
   style="enable-background:new 0 0 361 361;"
   xml:space="preserve"
   id="svg470"
   sodipodi:docname="control_zoom_in_alt.svg"
   inkscape:version="0.92.4 (5da689c313, 2019-01-14)"><metadata
   id="metadata476"><rdf:RDF><cc:Work
       rdf:about=""><dc:format>image/svg+xml</dc:format><dc:type
         rdf:resource="http://purl.org/dc/dcmitype/StillImage" /><dc:title></dc:title></cc:Work></rdf:RDF></metadata><defs
   id="defs474" /><sodipodi:namedview
   pagecolor="#ffffff"
   bordercolor="#666666"
   borderopacity="1"
   objecttolerance="10"
   gridtolerance="10"
   guidetolerance="10"
   inkscape:pageopacity="0"
   inkscape:pageshadow="2"
   inkscape:window-width="3840"
   inkscape:window-height="2028"
   id="namedview472"
   showgrid="false"
   inkscape:zoom="4.7119114"
   inkscape:cx="180.5"
   inkscape:cy="168.90997"
   inkscape:window-x="-16"
   inkscape:window-y="-16"
   inkscape:window-maximized="1"
   inkscape:current-layer="svg470" />
<g
   id="control_x5F_zoom_x5F_out">
	<g
   id="g460">
		<path
   style="fill:none;stroke:#FFFFFF;stroke-width:10;stroke-miterlimit:10;"
   d="M208.502,184.758    c0,13.205-10.707,23.91-23.91,23.91H99.578c-13.206,0-23.91-10.705-23.91-23.91V99.743c0-13.205,10.704-23.91,23.91-23.91h85.014    c13.203,0,23.91,10.705,23.91,23.91V184.758z"
   id="path456" />
		<path
   style="fill:none;stroke:#FFFFFF;stroke-width:10;stroke-miterlimit:10;"
   d="M208.075,189.242l75.862,75.862    c2.893,2.892,2.893,7.582,0,10.474l-8.728,8.728c-2.893,2.893-7.581,2.893-10.474,0l-76.004-76.003"
   id="path458" />
	</g>
	<g
   id="g466">
		<g
   id="g464">
			<path
   style="fill:#FFFFFF;"
   d="M105.996,149.668c23.906,0,47.813,0,71.718,0c9.687,0,9.771-15.003,0.108-15.003     c-23.906,0-47.813,0-71.718,0C96.417,134.666,96.332,149.668,105.996,149.668L105.996,149.668z"
   id="path462" />
		</g>
	</g>
</g>
<g
   id="Ebene_1">
</g>
<g
   transform="translate(-77.461258,0.4503455)"
   id="g216"><g
     id="g214"><path
       inkscape:connector-curvature="0"
       style="fill:#ffffff"
       d="m 227.368,178.081 c 0,-23.906 0,-47.813 0,-71.719 0,-9.687 -15.004,-9.772 -15.004,-0.108 0,23.906 0,47.813 0,71.719 0,9.685 15.004,9.771 15.004,0.108 z"
       id="path212" /></g></g></svg>