<?xml version="1.0" encoding="UTF-8" standalone="no"?>
<!-- Generator: Adobe Illustrator 16.0.0, SVG Export Plug-In . SVG Version: 6.00 Build 0)  -->

<svg
   xmlns:dc="http://purl.org/dc/elements/1.1/"
   xmlns:cc="http://creativecommons.org/ns#"
   xmlns:rdf="http://www.w3.org/1999/02/22-rdf-syntax-ns#"
   xmlns:svg="http://www.w3.org/2000/svg"
   xmlns="http://www.w3.org/2000/svg"
   xmlns:sodipodi="http://sodipodi.sourceforge.net/DTD/sodipodi-0.dtd"
   xmlns:inkscape="http://www.inkscape.org/namespaces/inkscape"
   version="1.1"
   x="0px"
   y="0px"
   width="361px"
   height="361px"
   viewBox="0 0 361 361"
   style="enable-background:new 0 0 361 361;"
   xml:space="preserve"
   id="svg96"
   sodipodi:docname="fts_shutter_0.svg"
   inkscape:version="0.92.4 (5da689c313, 2019-01-14)"><metadata
   id="metadata102"><rdf:RDF><cc:Work
       rdf:about=""><dc:format>image/svg+xml</dc:format><dc:type
         rdf:resource="http://purl.org/dc/dcmitype/StillImage" /><dc:title></dc:title></cc:Work></rdf:RDF></metadata><defs
   id="defs100" /><sodipodi:namedview
   pagecolor="#ffffff"
   bordercolor="#666666"
   borderopacity="1"
   objecttolerance="10"
   gridtolerance="10"
   guidetolerance="10"
   inkscape:pageopacity="0"
   inkscape:pageshadow="2"
   inkscape:window-width="3840"
   inkscape:window-height="2028"
   id="namedview98"
   showgrid="false"
   inkscape:zoom="4.7119114"
   inkscape:cx="180.5"
   inkscape:cy="180.5"
   inkscape:window-x="-16"
   inkscape:window-y="-16"
   inkscape:window-maximized="1"
   inkscape:current-layer="fts_x5F_shutter_x5F_10" />
<g
   id="fts_x5F_shutter_x5F_10">
	<path
   style="fill:none;stroke:#FFFFFF;stroke-width:10;stroke-miterlimit:10;"
   d="M279.5,248.734c0,3.645-2.955,6.6-6.6,6.6H88.1   c-3.646,0-6.6-2.955-6.6-6.6V129.934c0-3.645,2.955-6.6,6.6-6.6h184.8c3.645,0,6.6,2.956,6.6,6.6V248.734z"
   id="path76" />
	<g
   id="g82">
		<g
   id="g80">
			<path
   style="fill:#FFFFFF;"
   d="M174.945,194.178c3.935,0,7.87,0,11.805,0c6.448,0,6.448-10,0-10c-3.935,0-7.87,0-11.805,0     C168.497,184.178,168.497,194.178,174.945,194.178L174.945,194.178z"
   id="path78" />
		</g>
	</g>
	
		<line
   style="fill:none;stroke:#FFFFFF;stroke-width:10;stroke-miterlimit:10;"
   x1="180.719"
   y1="123.645"
   x2="180.719"
   y2="252.064"
   id="line84" />
	<path
   style="fill:#FFFFFF;stroke:#FFFFFF;stroke-width:10;stroke-miterlimit:10;"
   d="M286.666,124.713   c0,0.509-3.164,0.922-7.066,0.922H81.733c-3.903,0-7.066-0.414-7.066-0.922V108.12c0-0.509,3.164-0.922,7.066-0.922H279.6   c3.902,0,7.066,0.414,7.066,0.922V124.713z"
   id="path86" />
	
</g>
<g
   id="Ebene_1">
</g>
</svg>