<?xml version="1.0" encoding="UTF-8" standalone="no"?>
<!-- Generator: Adobe Illustrator 16.0.3, SVG Export Plug-In . SVG Version: 6.00 Build 0)  -->

<svg
   xmlns:dc="http://purl.org/dc/elements/1.1/"
   xmlns:cc="http://creativecommons.org/ns#"
   xmlns:rdf="http://www.w3.org/1999/02/22-rdf-syntax-ns#"
   xmlns:svg="http://www.w3.org/2000/svg"
   xmlns="http://www.w3.org/2000/svg"
   xmlns:sodipodi="http://sodipodi.sourceforge.net/DTD/sodipodi-0.dtd"
   xmlns:inkscape="http://www.inkscape.org/namespaces/inkscape"
   version="1.1"
   x="0px"
   y="0px"
   width="361px"
   height="361px"
   viewBox="0 0 361 361"
   style="enable-background:new 0 0 361 361;"
   xml:space="preserve"
   id="svg6544"
   sodipodi:docname="fts_shutter_small.svg"
   inkscape:version="0.92.4 (5da689c313, 2019-01-14)"><metadata
   id="metadata6550"><rdf:RDF><cc:Work
       rdf:about=""><dc:format>image/svg+xml</dc:format><dc:type
         rdf:resource="http://purl.org/dc/dcmitype/StillImage" /><dc:title></dc:title></cc:Work></rdf:RDF></metadata><defs
   id="defs6548" /><sodipodi:namedview
   pagecolor="#ffffff"
   bordercolor="#666666"
   borderopacity="1"
   objecttolerance="10"
   gridtolerance="10"
   guidetolerance="10"
   inkscape:pageopacity="0"
   inkscape:pageshadow="2"
   inkscape:window-width="3840"
   inkscape:window-height="2028"
   id="namedview6546"
   showgrid="false"
   inkscape:zoom="2.6149584"
   inkscape:cx="393.13328"
   inkscape:cy="145.71001"
   inkscape:window-x="-16"
   inkscape:window-y="-16"
   inkscape:window-maximized="1"
   inkscape:current-layer="fts_x5F_shutter_x5F_attention" />
<g
   id="fts_x5F_shutter_x5F_attention">
	<path
   style="fill:none;stroke:#FFFFFF;stroke-width:10;stroke-miterlimit:10;"
   d="M239.016,187.987c0,2.916-2.363,5.28-5.279,5.28   H85.896c-2.917,0-5.28-2.364-5.28-5.28v-95.04c0-2.916,2.364-5.28,5.28-5.28h147.84c2.916,0,5.279,2.364,5.279,5.28V187.987z"
   id="path6496" />
	<g
   id="g6502">
		<g
   id="g6500">
			<path
   style="fill:#FFFFFF;"
   d="M155.373,145.343c3.148,0,6.296,0,9.444,0c6.449,0,6.449-10,0-10c-3.148,0-6.296,0-9.444,0     C148.924,135.343,148.924,145.343,155.373,145.343L155.373,145.343z"
   id="path6498" />
		</g>
	</g>
	
		<line
   style="fill:none;stroke:#FFFFFF;stroke-width:10;stroke-miterlimit:10;"
   x1="159.992"
   y1="87.917"
   x2="159.992"
   y2="190.652"
   id="line6504" />
	<path
   style="fill:#FFFFFF;stroke:#FFFFFF;stroke-width:10;stroke-miterlimit:10;"
   d="M244.749,88.771   c0,0.407-2.53,0.738-5.653,0.738H80.803c-3.122,0-5.653-0.331-5.653-0.738V75.497c0-0.407,2.531-0.738,5.653-0.738h158.293   c3.123,0,5.653,0.331,5.653,0.738V88.771z"
   id="path6506" />
	<g
   id="g6512">
		<g
   id="g6510">
			<path
   style="fill:#FFFFFF;"
   d="M75.416,103.167c49.739,0,99.478,0.001,149.217,0.002c6.75,0,13.5,0,20.25,0c4.514,0,4.514-7,0-7     c-49.739,0-99.478-0.001-149.216-0.002c-6.75,0-13.5,0-20.25,0C70.902,96.167,70.902,103.167,75.416,103.167L75.416,103.167z"
   id="path6508" />
		</g>
	</g>
	<g
   id="g6518">
		<g
   id="g6516">
			<path
   style="fill:#FFFFFF;"
   d="M75.416,113.567c49.739,0,99.478,0.001,149.217,0.002c6.75,0,13.5,0,20.25,0c4.514,0,4.514-7,0-7     c-49.739,0-99.478-0.001-149.216-0.002c-6.75,0-13.5,0-20.25,0C70.902,106.567,70.902,113.567,75.416,113.567L75.416,113.567z"
   id="path6514" />
		</g>
	</g>
	<g
   id="g6524">
		<g
   id="g6522">
			<path
   style="fill:#FFFFFF;"
   d="M75.416,123.967c49.739,0,99.478,0.001,149.217,0.002c6.75,0,13.5,0,20.25,0c4.514,0,4.514-7,0-7     c-49.739,0-99.478-0.001-149.216-0.002c-6.75,0-13.5,0-20.25,0C70.902,116.967,70.902,123.967,75.416,123.967L75.416,123.967z"
   id="path6520" />
		</g>
	</g>
	<g
   id="g6530">
		<g
   id="g6528">
			<path
   style="fill:#FFFFFF;"
   d="M75.416,134.367c49.739,0,99.478,0.001,149.217,0.002c6.75,0,13.5,0,20.25,0c4.514,0,4.514-7,0-7     c-49.739,0-99.478-0.001-149.216-0.002c-6.75,0-13.5,0-20.25,0C70.902,127.367,70.902,134.367,75.416,134.367L75.416,134.367z"
   id="path6526" />
		</g>
	</g>
	
	
</g>
<g
   id="Ebene_1">
</g>
</svg>