<?xml version="1.0" encoding="UTF-8" standalone="no"?>
<!-- Generator: Adobe Illustrator 16.0.0, SVG Export Plug-In . SVG Version: 6.00 Build 0)  -->

<svg
   xmlns:dc="http://purl.org/dc/elements/1.1/"
   xmlns:cc="http://creativecommons.org/ns#"
   xmlns:rdf="http://www.w3.org/1999/02/22-rdf-syntax-ns#"
   xmlns:svg="http://www.w3.org/2000/svg"
   xmlns="http://www.w3.org/2000/svg"
   xmlns:sodipodi="http://sodipodi.sourceforge.net/DTD/sodipodi-0.dtd"
   xmlns:inkscape="http://www.inkscape.org/namespaces/inkscape"
   version="1.1"
   x="0px"
   y="0px"
   width="361px"
   height="361px"
   viewBox="0 0 361 361"
   style="enable-background:new 0 0 361 361;"
   xml:space="preserve"
   id="svg2360"
   sodipodi:docname="fts_shutter_vert_small.svg"
   inkscape:version="0.92.4 (5da689c313, 2019-01-14)"><metadata
   id="metadata2366"><rdf:RDF><cc:Work
       rdf:about=""><dc:format>image/svg+xml</dc:format><dc:type
         rdf:resource="http://purl.org/dc/dcmitype/StillImage" /><dc:title></dc:title></cc:Work></rdf:RDF></metadata><defs
   id="defs2364" /><sodipodi:namedview
   pagecolor="#ffffff"
   bordercolor="#666666"
   borderopacity="1"
   objecttolerance="10"
   gridtolerance="10"
   guidetolerance="10"
   inkscape:pageopacity="0"
   inkscape:pageshadow="2"
   inkscape:window-width="3840"
   inkscape:window-height="2028"
   id="namedview2362"
   showgrid="false"
   inkscape:zoom="4.7119114"
   inkscape:cx="180.5"
   inkscape:cy="180.5"
   inkscape:window-x="-16"
   inkscape:window-y="-16"
   inkscape:window-maximized="1"
   inkscape:current-layer="fts_x5F_shutter_x5F_vert_x5F_automatic" />
<g
   id="fts_x5F_shutter_x5F_vert_x5F_automatic">
	
	<g
   id="Fenster_m_Rahmen_25_">
		<path
   id="Rahmen_25_"
   style="fill:none;stroke:#FFFFFF;stroke-width:10;stroke-miterlimit:10;"
   d="M238.758,187.957    c0,2.912-2.359,5.271-5.271,5.271H85.879c-2.912,0-5.271-2.358-5.271-5.271V93.066c0-2.911,2.36-5.271,5.271-5.271h147.607    c2.912,0,5.271,2.361,5.271,5.271V187.957z" />
		<g
   id="Hebel_25_">
			<g
   id="g2317">
				<path
   style="fill:#FFFFFF;"
   d="M155.247,145.387c3.143,0,6.286,0,9.429,0c6.449,0,6.449-10,0-10c-3.143,0-6.286,0-9.429,0      C148.798,135.387,148.798,145.387,155.247,145.387L155.247,145.387z"
   id="path2315" />
			</g>
		</g>
		
			<line
   id="Mittelsteg_25_"
   style="fill:none;stroke:#FFFFFF;stroke-width:10;stroke-miterlimit:10;"
   x1="159.858"
   y1="88.043"
   x2="159.858"
   y2="190.617" />
		<path
   id="Sturz_25_"
   style="fill:#FFFFFF;stroke:#FFFFFF;stroke-width:10;stroke-miterlimit:10;"
   d="M244.482,88.896    c0,0.407-2.527,0.737-5.645,0.737H80.793c-3.117,0-5.644-0.33-5.644-0.737V75.642c0-0.407,2.527-0.737,5.644-0.737h158.044    c3.117,0,5.645,0.33,5.645,0.737V88.896z" />
	</g>
	<g
   id="_x31_0_37_">
		<g
   id="g2325">
			<path
   style="fill:#FFFFFF;"
   d="M97.273,193.268c0.001-35.944,0.001-71.888,0.002-107.832c0-4.514-7-4.514-7,0     c-0.001,35.944-0.001,71.888-0.002,107.832C90.273,197.781,97.273,197.781,97.273,193.268L97.273,193.268z"
   id="path2323" />
		</g>
	</g>
	<g
   id="_x32_0_35_">
		<g
   id="g2330">
			<path
   style="fill:#FFFFFF;"
   d="M111.958,193.268c0.001-35.944,0.001-71.888,0.002-107.832c0-4.514-7-4.514-7,0     c-0.001,35.944-0.001,71.888-0.002,107.832C104.958,197.781,111.958,197.781,111.958,193.268L111.958,193.268z"
   id="path2328" />
		</g>
	</g>
	<g
   id="_x33_0_33_">
		<g
   id="g2335">
			<path
   style="fill:#FFFFFF;"
   d="M126.644,193.268c0-35.944,0.001-71.888,0.002-107.832c0-4.514-7-4.514-7,0     c0,35.944-0.001,71.888-0.002,107.832C119.644,197.781,126.644,197.781,126.644,193.268L126.644,193.268z"
   id="path2333" />
		</g>
	</g>
	<g
   id="_x34_0_31_">
		<g
   id="g2340">
			<path
   style="fill:#FFFFFF;"
   d="M141.329,193.268c0.001-35.944,0.001-71.888,0.002-107.832c0-4.514-7-4.514-7,0     c-0.001,35.944-0.001,71.888-0.002,107.832C134.329,197.781,141.329,197.781,141.329,193.268L141.329,193.268z"
   id="path2338" />
		</g>
	</g>
	<g
   id="_x35_0_29_">
		<g
   id="g2345">
			<path
   style="fill:#FFFFFF;"
   d="M156.014,193.268c0.001-35.944,0.001-71.888,0.002-107.832c0-4.514-7-4.514-7,0     c-0.001,35.944-0.001,71.888-0.002,107.832C149.014,197.781,156.014,197.781,156.014,193.268L156.014,193.268z"
   id="path2343" />
		</g>
	</g>
	<g
   id="_x36_0_27_">
		<g
   id="g2350">
			<path
   style="fill:#FFFFFF;"
   d="M170.7,193.268c0.001-35.944,0.001-71.888,0.002-107.832c0-4.514-7-4.514-7,0     c-0.001,35.944-0.001,71.888-0.002,107.832C163.7,197.781,170.7,197.781,170.7,193.268L170.7,193.268z"
   id="path2348" />
		</g>
	</g>
	<g
   id="_x37_0_25_">
		<g
   id="g2355">
			<path
   style="fill:#FFFFFF;"
   d="M185.385,193.268c0.001-35.944,0.001-71.888,0.002-107.832c0-4.514-7-4.514-7,0     c0,35.944-0.001,71.888-0.002,107.832C178.385,197.781,185.385,197.781,185.385,193.268L185.385,193.268z"
   id="path2353" />
		</g>
	</g>
</g>
<g
   id="Ebene_1">
</g>
</svg>