<?xml version="1.0" encoding="UTF-8" standalone="no"?>
<!-- Generator: Adobe Illustrator 16.0.0, SVG Export Plug-In . SVG Version: 6.00 Build 0)  -->

<svg
   xmlns:dc="http://purl.org/dc/elements/1.1/"
   xmlns:cc="http://creativecommons.org/ns#"
   xmlns:rdf="http://www.w3.org/1999/02/22-rdf-syntax-ns#"
   xmlns:svg="http://www.w3.org/2000/svg"
   xmlns="http://www.w3.org/2000/svg"
   xmlns:sodipodi="http://sodipodi.sourceforge.net/DTD/sodipodi-0.dtd"
   xmlns:inkscape="http://www.inkscape.org/namespaces/inkscape"
   version="1.1"
   x="0px"
   y="0px"
   width="361px"
   height="361px"
   viewBox="0 0 361 361"
   style="enable-background:new 0 0 361 361;"
   xml:space="preserve"
   id="svg2464"
   sodipodi:docname="light_light_dim.svg"
   inkscape:version="0.92.4 (5da689c313, 2019-01-14)"><metadata
   id="metadata2470"><rdf:RDF><cc:Work
       rdf:about=""><dc:format>image/svg+xml</dc:format><dc:type
         rdf:resource="http://purl.org/dc/dcmitype/StillImage" /><dc:title></dc:title></cc:Work></rdf:RDF></metadata><defs
   id="defs2468" /><sodipodi:namedview
   pagecolor="#ffffff"
   bordercolor="#666666"
   borderopacity="1"
   objecttolerance="10"
   gridtolerance="10"
   guidetolerance="10"
   inkscape:pageopacity="0"
   inkscape:pageshadow="2"
   inkscape:window-width="3840"
   inkscape:window-height="2028"
   id="namedview2466"
   showgrid="false"
   inkscape:zoom="3.6981097"
   inkscape:cx="331.88464"
   inkscape:cy="180.86419"
   inkscape:window-x="-16"
   inkscape:window-y="-16"
   inkscape:window-maximized="1"
   inkscape:current-layer="light_x5F_light_x5F_dim_x5F_00" />
<g
   id="light_x5F_light_x5F_dim_x5F_00">
	<g
   id="g2372">
		<g
   id="g2370">
			<path
   style="fill:#FFFFFF;"
   d="M161.189,248.056c12.286,2.099,24.573,4.196,36.859,6.295c6.306,1.077,9.006-8.559,2.658-9.643     c-12.286-2.099-24.573-4.196-36.859-6.295C157.542,237.336,154.842,246.972,161.189,248.056L161.189,248.056z"
   id="path2368" />
		</g>
	</g>
	<g
   id="g2378">
		<g
   id="g2376">
			<path
   style="fill:#FFFFFF;"
   d="M161.568,261.306c12.286,2.099,24.572,4.196,36.858,6.295c6.306,1.077,9.006-8.559,2.658-9.643     c-12.286-2.099-24.572-4.196-36.858-6.295C157.921,250.586,155.221,260.222,161.568,261.306L161.568,261.306z"
   id="path2374" />
		</g>
	</g>
	<g
   id="g2384">
		<g
   id="g2382">
			<path
   style="fill:#FFFFFF;"
   d="M161.568,274.178c12.286,2.098,24.572,4.196,36.858,6.294c6.306,1.077,9.006-8.559,2.658-9.643     c-12.286-2.098-24.572-4.196-36.858-6.294C157.921,263.458,155.221,273.094,161.568,274.178L161.568,274.178z"
   id="path2380" />
		</g>
	</g>
	<g
   id="g2390">
		<g
   id="g2388">
			<path
   style="fill:#FFFFFF;"
   d="M169.414,287.919c6.895,1.177,13.79,2.354,20.685,3.531c6.306,1.076,9.006-8.56,2.658-9.643     c-6.895-1.177-13.79-2.354-20.685-3.531C165.766,277.2,163.066,286.836,169.414,287.919L169.414,287.919z"
   id="path2386" />
		</g>
	</g>
	<g
   id="g2396">
		<g
   id="g2394">
			<path
   style="fill:#FFFFFF;"
   d="M207.144,212.143c-0.341,9.681-8.01,13.822-16.692,13.822c-7.013,0-14.026,0-21.039,0     c-8.104,0-15.012-5.457-15.012-13.996c0-4.135,0-8.271,0-12.405c0-15.173,0-30.345,0-45.517c0-3.714-0.417-7.771,0.237-11.456     c1.636-9.222,9.999-11.199,17.885-11.199c5.5,0,11,0,16.499,0c5.02,0,9.565,0.06,13.623,3.612c6.159,5.392,4.5,15.458,4.5,22.791     C207.144,175.91,207.144,194.026,207.144,212.143c0,6.448,10,6.448,10,0c0-22.303,0-44.605,0-66.908     c0-10.783-7.24-19.668-17.282-22.934c-6.056-1.969-13.839-0.909-20.08-0.909c-6.753,0-14.117-0.791-20.507,1.785     c-8.985,3.62-14.875,12.547-14.875,22.212c0,22.245,0,44.489,0,66.734c0,10.43,6.662,18.748,16.059,22.535     c5.704,2.298,13.314,1.307,19.323,1.307c6.218,0,12.671,0.497,18.821-0.595c11.008-1.952,18.168-12.63,18.541-23.228     C217.37,205.69,207.369,205.713,207.144,212.143z"
   id="path2392" />
		</g>
	</g>
	
	<path
   style="display:none;fill:#FFFFFF;"
   d="M199.378,208.618c0,4.696-4.03,8.504-9.003,8.504h-18.853   c-4.973,0-9.003-3.808-9.003-8.504v-60.492c0-4.697,4.031-8.504,9.003-8.504h18.853c4.973,0,9.003,3.807,9.003,8.504V208.618z"
   id="path2460" />
</g>
<g
   id="Ebene_1">
</g>
</svg>