<?xml version="1.0" encoding="UTF-8" standalone="no"?>
<!-- Generator: Adobe Illustrator 16.0.0, SVG Export Plug-In . SVG Version: 6.00 Build 0)  -->

<svg
   xmlns:dc="http://purl.org/dc/elements/1.1/"
   xmlns:cc="http://creativecommons.org/ns#"
   xmlns:rdf="http://www.w3.org/1999/02/22-rdf-syntax-ns#"
   xmlns:svg="http://www.w3.org/2000/svg"
   xmlns="http://www.w3.org/2000/svg"
   xmlns:sodipodi="http://sodipodi.sourceforge.net/DTD/sodipodi-0.dtd"
   xmlns:inkscape="http://www.inkscape.org/namespaces/inkscape"
   version="1.1"
   x="0px"
   y="0px"
   width="361px"
   height="361px"
   viewBox="0 0 361 361"
   style="enable-background:new 0 0 361 361;"
   xml:space="preserve"
   id="svg2804"
   sodipodi:docname="sani_irrigation_small.svg"
   inkscape:version="0.92.4 (5da689c313, 2019-01-14)"><metadata
   id="metadata2810"><rdf:RDF><cc:Work
       rdf:about=""><dc:format>image/svg+xml</dc:format><dc:type
         rdf:resource="http://purl.org/dc/dcmitype/StillImage" /><dc:title></dc:title></cc:Work></rdf:RDF></metadata><defs
   id="defs2808" /><sodipodi:namedview
   pagecolor="#ffffff"
   bordercolor="#666666"
   borderopacity="1"
   objecttolerance="10"
   gridtolerance="10"
   guidetolerance="10"
   inkscape:pageopacity="0"
   inkscape:pageshadow="2"
   inkscape:window-width="3840"
   inkscape:window-height="2028"
   id="namedview2806"
   showgrid="false"
   inkscape:zoom="2.6149584"
   inkscape:cx="396.9799"
   inkscape:cy="165.64748"
   inkscape:window-x="-16"
   inkscape:window-y="-16"
   inkscape:window-maximized="1"
   inkscape:current-layer="sani_x5F_irrigation_x5F_automatic" />
<g
   id="sani_x5F_irrigation_x5F_automatic">
	<g
   id="g2626">
		<path
   style="fill:#FFFFFF;stroke:#FFFFFF;stroke-miterlimit:10;"
   d="M289.82,141.612c2.646,3.343,2.081,8.199-1.262,10.845    l-32.286,25.559c-3.343,2.646-8.2,2.081-10.845-1.261l-47.322-59.78c-2.647-3.344-2.082-8.2,1.261-10.846l32.286-25.558    c3.344-2.646,8.199-2.082,10.846,1.262L289.82,141.612z"
   id="path2606" />
		<g
   id="g2612">
			<g
   id="g2610">
				<path
   style="fill:#FFFFFF;"
   d="M162.793,164.229c27.088,1.939,54.177,3.878,81.265,5.817c6.438,0.461,6.394-9.542,0-10      c-27.088-1.939-54.177-3.878-81.265-5.817C156.355,153.768,156.4,163.771,162.793,164.229L162.793,164.229z"
   id="path2608" />
			</g>
		</g>
		<g
   id="g2620">
			<polygon
   style="fill:#FFFFFF;"
   points="145.615,142.997 159.633,159.026 145.152,174.636    "
   id="polygon2614" />
			<g
   id="g2618">
				<path
   style="fill:#FFFFFF;"
   d="M142.08,146.532c4.673,5.343,9.345,10.686,14.018,16.029c0-2.357,0-4.714,0-7.071      c-4.827,5.204-9.653,10.407-14.48,15.61c2.845,1.179,5.69,2.357,8.536,3.536c0.154-10.546,0.309-21.093,0.463-31.64      c0.094-6.452-9.906-6.443-10,0c-0.154,10.546-0.309,21.093-0.463,31.64c-0.063,4.268,5.555,6.749,8.536,3.536      c4.827-5.204,9.653-10.407,14.48-15.61c1.947-2.099,1.845-4.961,0-7.071c-4.673-5.343-9.345-10.686-14.018-16.029      C144.898,134.598,137.854,141.7,142.08,146.532z"
   id="path2616" />
			</g>
		</g>
		
			<ellipse
   transform="matrix(0.8558 -0.5172 0.5172 0.8558 -16.5769 150.6201)"
   style="fill:none;stroke:#FFFFFF;stroke-width:10;stroke-miterlimit:10;"
   cx="261.924"
   cy="105.049"
   rx="17.713"
   ry="21.222"
   id="ellipse2622" />
		<polygon
   style="fill:#FFFFFF;stroke:#FFFFFF;stroke-miterlimit:10;"
   points="207.401,161.507 221.662,136.196 236.753,161.371       "
   id="polygon2624" />
	</g>
	<g
   id="g2632">
		<g
   id="g2630">
			<path
   style="fill:#FFFFFF;"
   d="M132.422,151.708c-3.654,0.209-7.308,0.418-10.962,0.627c-4.487,0.257-4.512,7.258,0,7     c3.654-0.209,7.308-0.418,10.962-0.627C136.909,158.451,136.934,151.45,132.422,151.708L132.422,151.708z"
   id="path2628" />
		</g>
	</g>
	<g
   id="g2638">
		<g
   id="g2636">
			<path
   style="fill:#FFFFFF;"
   d="M95.066,156.207c-3.924,1.819-7.847,3.639-11.771,5.458c-4.092,1.897-0.534,7.93,3.533,6.044     c3.923-1.819,7.847-3.639,11.771-5.458C102.691,160.353,99.133,154.32,95.066,156.207L95.066,156.207z"
   id="path2634" />
		</g>
	</g>
	<g
   id="g2644">
		<g
   id="g2642">
			<path
   style="fill:#FFFFFF;"
   d="M77.856,170.06c-1.999,2.297-3.997,4.594-5.996,6.89c-1.251,1.438-1.418,3.532,0,4.95     c1.279,1.278,3.697,1.44,4.95,0c1.999-2.296,3.997-4.593,5.996-6.89c1.251-1.438,1.418-3.532,0-4.95     C81.527,168.781,79.109,168.62,77.856,170.06L77.856,170.06z"
   id="path2640" />
		</g>
	</g>
	<g
   id="g2650">
		<g
   id="g2648">
			<path
   style="fill:#FFFFFF;"
   d="M132.35,141.696c-6.256,0-12.511,0-18.767,0c-4.514,0-4.514,7,0,7c6.256,0,12.511,0,18.767,0     C136.864,148.696,136.864,141.696,132.35,141.696L132.35,141.696z"
   id="path2646" />
		</g>
	</g>
	<g
   id="g2656">
		<g
   id="g2654">
			<path
   style="fill:#FFFFFF;"
   d="M99.066,144.392c-4.167,1.833-8.333,3.667-12.5,5.5c-4.124,1.814-0.558,7.844,3.533,6.044     c4.167-1.833,8.333-3.667,12.5-5.5C106.723,148.622,103.157,142.592,99.066,144.392L99.066,144.392z"
   id="path2652" />
		</g>
	</g>
	<g
   id="g2662">
		<g
   id="g2660">
			<path
   style="fill:#FFFFFF;"
   d="M77.858,154.376c-2.25,1.921-4.5,3.843-6.75,5.764c-1.452,1.24-1.269,3.681,0,4.95     c1.428,1.427,3.5,1.237,4.95,0c2.25-1.921,4.5-3.843,6.75-5.764c1.452-1.24,1.269-3.681,0-4.95     C81.38,152.949,79.308,153.139,77.858,154.376L77.858,154.376z"
   id="path2658" />
		</g>
	</g>
	<g
   id="g2668">
		<g
   id="g2666">
			<path
   style="fill:#FFFFFF;"
   d="M132.419,162.441c-5.089,1.41-10.178,2.819-15.267,4.229c-4.344,1.204-2.497,7.957,1.861,6.75     c5.089-1.41,10.178-2.819,15.267-4.229C138.625,167.988,136.778,161.234,132.419,162.441L132.419,162.441z"
   id="path2664" />
		</g>
	</g>
	<g
   id="g2674">
		<g
   id="g2672">
			<path
   style="fill:#FFFFFF;"
   d="M106.713,173.76c-2.639,1.684-5.278,3.368-7.918,5.052c-3.792,2.419-0.285,8.48,3.533,6.044     c2.639-1.685,5.278-3.368,7.918-5.052C114.038,177.385,110.531,171.324,106.713,173.76L106.713,173.76z"
   id="path2670" />
		</g>
	</g>
	<g
   id="g2680">
		<g
   id="g2678">
			<path
   style="fill:#FFFFFF;"
   d="M87.858,187.189c-1.833,2.166-3.667,4.333-5.5,6.5c-1.231,1.455-1.432,3.518,0,4.949     c1.265,1.265,3.716,1.458,4.95,0c1.833-2.166,3.667-4.333,5.5-6.5c1.231-1.455,1.432-3.518,0-4.949     C91.543,185.925,89.092,185.731,87.858,187.189L87.858,187.189z"
   id="path2676" />
		</g>
	</g>
	<g
   id="g2686">
		<g
   id="g2684">
			<path
   style="fill:#FFFFFF;"
   d="M72.561,202.147c-0.583,1.25-1.167,2.5-1.75,3.75c-0.807,1.729-0.502,3.76,1.255,4.789     c1.53,0.896,3.982,0.473,4.789-1.256c0.583-1.25,1.167-2.5,1.75-3.75c0.807-1.729,0.502-3.76-1.255-4.789     C75.819,199.995,73.368,200.419,72.561,202.147L72.561,202.147z"
   id="path2682" />
		</g>
	</g>
	<g
   id="g2692">
		<g
   id="g2690">
			<path
   style="fill:#FFFFFF;"
   d="M132.625,174.011c-6.122,2.587-12.244,5.174-18.366,7.761c-4.146,1.752-0.573,7.78,3.533,6.045     c6.122-2.588,12.244-5.175,18.366-7.762C140.303,178.303,136.731,172.275,132.625,174.011L132.625,174.011z"
   id="path2688" />
		</g>
	</g>
	<g
   id="g2698">
		<g
   id="g2696">
			<path
   style="fill:#FFFFFF;"
   d="M105.629,186.189c-2.528,2.333-5.056,4.666-7.583,7c-3.323,3.067,1.639,8.006,4.95,4.949     c2.528-2.333,5.056-4.666,7.583-7C113.902,188.071,108.94,183.133,105.629,186.189L105.629,186.189z"
   id="path2694" />
		</g>
	</g>
	<g
   id="g2704">
		<g
   id="g2702">
			<path
   style="fill:#FFFFFF;"
   d="M90.561,201.147c-1.667,2.333-3.333,4.667-5,7c-1.111,1.556-0.277,3.891,1.255,4.789     c1.76,1.03,3.682,0.293,4.789-1.256c1.667-2.333,3.333-4.667,5-7c1.111-1.556,0.277-3.891-1.255-4.789     C93.59,198.861,91.667,199.599,90.561,201.147L90.561,201.147z"
   id="path2700" />
		</g>
	</g>
	<g
   id="g2710">
		<g
   id="g2708">
			<path
   style="fill:#FFFFFF;"
   d="M79.022,216.065c-0.558,1.305-1.115,2.609-1.672,3.914c-0.388,0.909-0.627,1.701-0.353,2.697     c0.241,0.875,0.826,1.633,1.608,2.092c1.489,0.872,4.039,0.5,4.789-1.256c0.558-1.305,1.115-2.609,1.672-3.914     c0.388-0.909,0.627-1.701,0.353-2.697c-0.241-0.875-0.826-1.633-1.608-2.092C82.321,213.938,79.772,214.31,79.022,216.065     L79.022,216.065z"
   id="path2706" />
		</g>
	</g>
	<g
   id="g2716">
		<g
   id="g2714">
			<path
   style="fill:#FFFFFF;"
   d="M106.202,162.065c-2.907,1.161-5.815,2.322-8.723,3.483c-1.77,0.707-2.993,2.311-2.444,4.306     c0.463,1.685,2.531,3.153,4.306,2.444c2.907-1.161,5.815-2.322,8.723-3.483c1.77-0.707,2.993-2.311,2.444-4.306     C110.044,162.825,107.977,161.357,106.202,162.065L106.202,162.065z"
   id="path2712" />
		</g>
	</g>
	<g
   id="g2722">
		<g
   id="g2720">
			<path
   style="fill:#FFFFFF;"
   d="M88.202,175.586c-2.206,1.786-4.412,3.572-6.618,5.358c-1.484,1.203-1.243,3.708,0,4.95     c1.454,1.454,3.469,1.199,4.95,0c2.206-1.786,4.412-3.572,6.618-5.358c1.484-1.203,1.243-3.708,0-4.95     C91.698,174.133,89.683,174.387,88.202,175.586L88.202,175.586z"
   id="path2718" />
		</g>
	</g>
	<g
   id="g2728">
		<g
   id="g2726">
			<path
   style="fill:#FFFFFF;"
   d="M73.432,189.286c-0.807,1.119-1.613,2.237-2.42,3.356c-1.118,1.551-0.272,3.894,1.255,4.789     c1.765,1.033,3.675,0.288,4.789-1.256c0.807-1.119,1.613-2.237,2.42-3.356c1.118-1.551,0.272-3.894-1.255-4.789     C76.455,186.997,74.545,187.742,73.432,189.286L73.432,189.286z"
   id="path2724" />
		</g>
	</g>
	<g
   id="g2734">
		<g
   id="g2732">
			<path
   style="fill:#FFFFFF;"
   d="M112.081,150.961c-2.604,0.551-5.209,1.102-7.814,1.653c-1.867,0.395-2.927,2.551-2.444,4.306     c0.528,1.92,2.44,2.839,4.306,2.444c2.604-0.551,5.209-1.102,7.814-1.653c1.867-0.395,2.927-2.551,2.444-4.306     C115.858,151.485,113.946,150.567,112.081,150.961L112.081,150.961z"
   id="path2730" />
		</g>
	</g>
	<g
   id="Manual_3_"
   style="display:none;">
		<g
   style="display:inline;"
   id="g2740">
			<g
   id="g2738">
				<path
   style="fill:#FFFFFF;"
   d="M254.779,240.941c0-7.839,0-15.679,0-23.518c0-4.717,0-9.435,0-14.151      c0-4.062,0.029-3.786,4.262-3.786c3.592,0,2.924,0.556,2.924,3.979c0,4.77,0,9.54,0,14.311c0,7.722,0,15.444,0,23.166      c0,4.514,7,4.514,7,0c0-9.628,0-19.256,0-28.884c0-4.085,0-8.17,0-12.256c0-5.635-5.262-7.315-9.924-7.315      c-4.99,0-11.262,0.944-11.262,7.491c0,3.907,0,7.815,0,11.724c0,9.746,0,19.493,0,29.24      C247.779,245.455,254.779,245.455,254.779,240.941L254.779,240.941z"
   id="path2736" />
			</g>
		</g>
		<g
   style="display:inline;"
   id="g2746">
			<g
   id="g2744">
				<path
   style="fill:#FFFFFF;"
   d="M241.529,264.111c0-17.41-0.761-34.986,0.096-52.377c0.083-1.703-0.23-1.899,1.158-1.899      c1.53,0,3.06,0,4.59,0c3.138,0,0.406,0.3,0.406-1.67c0,0.426,0,0.851,0,1.276c0,4.608,0,9.217,0,13.825      c0,9.341,0,18.682,0,28.022c0,4.514,7,4.514,7,0c0-10.579,0-21.157,0-31.736c0-3.836,0-7.672,0-11.508      c0-6.559-9.839-5.706-14.153-5.085c-6.638,0.955-6.097,9.225-6.097,14.27c0,5.17,0,10.339,0,15.508c0,10.458,0,20.916,0,31.374      C234.529,268.625,241.529,268.625,241.529,264.111L241.529,264.111z"
   id="path2742" />
			</g>
		</g>
		<g
   style="display:inline;"
   id="g2752">
			<g
   id="g2750">
				<path
   style="fill:#FFFFFF;"
   d="M268.965,248.58c0-7.706,0-15.411,0-23.117c0-4.991,0-9.981,0-14.972c0-1.372,0-2.745,0-4.117      c0-0.306,0-0.611,0-0.917c0,2.009-2.682,1.67,0.572,1.67c1.134,0,2.268,0,3.402,0c1.072,0,1.807,1.667,1.807,0.878      c0,0.961,0,1.923,0,2.884c0,4.636,0,9.272,0,13.908c0,7.928,0,15.855,0,23.783c0,4.514,7,4.514,7,0c0-9.523,0-19.048,0-28.571      c0-3.97,0-7.938,0-11.908c0-6.226-6.35-7.974-11.283-7.974c-4.254,0-8.498,0.675-8.498,5.938c0,4.514,0,9.027,0,13.542      c0,9.657,0,19.315,0,28.973C261.965,253.094,268.965,253.094,268.965,248.58L268.965,248.58z"
   id="path2748" />
			</g>
		</g>
		<g
   style="display:inline;"
   id="g2758">
			<g
   id="g2756">
				<path
   style="fill:#FFFFFF;"
   d="M281.746,253.496c0-10.19,0-20.382,0-30.572c0-1.636,0-3.271,0-4.906      c0,0.553-2.668,1.47,0.174,1.47c0.353,0,2.667-0.113,2.719-0.045c1.164,1.542,0.551,5.814,0.551,7.593      c0,20.14,0,40.278,0,60.418c0,4.514,7,4.514,7,0c0-21.451,0-42.901,0-64.352c0-5.274-1.744-9.873-7.493-10.614      c-5.423-0.699-9.95,0.92-9.95,6.859c0,11.383,0,22.767,0,34.149C274.746,258.01,281.746,258.01,281.746,253.496L281.746,253.496      z"
   id="path2754" />
			</g>
		</g>
		<g
   style="display:inline;"
   id="g2764">
			<g
   id="g2762">
				<path
   style="fill:#FFFFFF;"
   d="M230.981,286.513c-3.43-13.311-6.858-26.621-10.288-39.932c-0.623-2.421-1.691-3.43,0.974-4.214      c0.966-0.284,4.328-1.591,4.608-0.793c0.414,1.177,0.827,2.354,1.241,3.531c2.359,6.713,4.718,13.427,7.077,20.14      c1.486,4.229,8.251,2.409,6.75-1.861c-2.693-7.663-5.387-15.327-8.079-22.99c-1.576-4.485-5.72-6.801-10.5-5.597      c-4.827,1.217-10.355,3.049-9.87,9.127c0.572,7.174,3.696,14.792,5.483,21.73c1.951,7.573,3.902,15.146,5.854,22.72      C225.357,292.742,232.108,290.888,230.981,286.513L230.981,286.513z"
   id="path2760" />
			</g>
		</g>
	</g>
	
</g>
<g
   id="Ebene_1">
</g>
</svg>