<?xml version="1.0" encoding="UTF-8" standalone="no"?>
<!-- Generator: Adobe Illustrator 16.0.0, SVG Export Plug-In . SVG Version: 6.00 Build 0)  -->

<svg
   xmlns:dc="http://purl.org/dc/elements/1.1/"
   xmlns:cc="http://creativecommons.org/ns#"
   xmlns:rdf="http://www.w3.org/1999/02/22-rdf-syntax-ns#"
   xmlns:svg="http://www.w3.org/2000/svg"
   xmlns="http://www.w3.org/2000/svg"
   xmlns:sodipodi="http://sodipodi.sourceforge.net/DTD/sodipodi-0.dtd"
   xmlns:inkscape="http://www.inkscape.org/namespaces/inkscape"
   version="1.1"
   x="0px"
   y="0px"
   width="361px"
   height="361px"
   viewBox="0 0 361 361"
   style="enable-background:new 0 0 361 361;"
   xml:space="preserve"
   id="svg4495"
   sodipodi:docname="weather_wind.svg"
   inkscape:version="0.92.4 (5da689c313, 2019-01-14)"><metadata
   id="metadata4501"><rdf:RDF><cc:Work
       rdf:about=""><dc:format>image/svg+xml</dc:format><dc:type
         rdf:resource="http://purl.org/dc/dcmitype/StillImage" /><dc:title></dc:title></cc:Work></rdf:RDF></metadata><defs
   id="defs4499" /><sodipodi:namedview
   pagecolor="#ffffff"
   bordercolor="#666666"
   borderopacity="1"
   objecttolerance="10"
   gridtolerance="10"
   guidetolerance="10"
   inkscape:pageopacity="0"
   inkscape:pageshadow="2"
   inkscape:window-width="3840"
   inkscape:window-height="2028"
   id="namedview4497"
   showgrid="false"
   inkscape:zoom="2.6149584"
   inkscape:cx="343.85187"
   inkscape:cy="202.20954"
   inkscape:window-x="-16"
   inkscape:window-y="-16"
   inkscape:window-maximized="1"
   inkscape:current-layer="O" />
<g
   id="weather_x5F_wind_x5F_directions_x5F_e">
	<g
   id="g4419">
		<g
   id="g4399">
			<g
   id="g4397">
				<path
   style="fill:#FFFFFF;"
   d="M282.148,96.03c0,49.764,0,99.527,0,149.291c0,13.782,0,27.563,0,41.346c0,6.448,10,6.448,10,0      c0-49.764,0-99.527,0-149.291c0-13.782,0-27.564,0-41.346C292.148,89.582,282.148,89.582,282.148,96.03L282.148,96.03z"
   id="path4395" />
			</g>
		</g>
		
			<line
   style="fill:none;stroke:#FFFFFF;stroke-width:10;stroke-miterlimit:10;"
   x1="95.345"
   y1="126.976"
   x2="212.398"
   y2="75.523"
   id="line4401" />
		
			<line
   style="fill:none;stroke:#FFFFFF;stroke-width:10;stroke-miterlimit:10;"
   x1="105.563"
   y1="157.045"
   x2="230.725"
   y2="143.917"
   id="line4403" />
		<g
   id="g4411">
			<polygon
   style="fill:#FFFFFF;"
   points="212.398,75.523 277.083,94.843 230.725,143.917    "
   id="polygon4405" />
			<g
   id="g4409">
				<path
   style="fill:#FFFFFF;"
   d="M211.069,80.345c21.562,6.44,43.123,12.88,64.685,19.32c-0.735-2.786-1.471-5.571-2.206-8.357      c-15.453,16.358-30.906,32.716-46.358,49.074c2.785,0.735,5.571,1.471,8.356,2.207c-6.108-22.798-12.218-45.596-18.326-68.394      c-1.667-6.223-11.314-3.579-9.643,2.658c6.108,22.798,12.218,45.596,18.326,68.394c0.955,3.565,5.765,4.951,8.356,2.207      c15.453-16.358,30.906-32.716,46.358-49.074c2.606-2.758,1.455-7.264-2.206-8.357c-21.562-6.44-43.123-12.88-64.685-19.32      C207.533,68.852,204.906,78.504,211.069,80.345z"
   id="path4407" />
			</g>
		</g>
		<path
   style="fill:#FFFFFF;"
   d="M120.743,152.304c0.902,3.603-1.41,7.288-5.165,8.228l-9.628,2.409    c-3.753,0.938-7.528-1.223-8.43-4.826l-7.281-29.096c-0.903-3.604,1.41-7.289,5.164-8.228l9.629-2.409    c3.754-0.938,7.528,1.222,8.431,4.826L120.743,152.304z"
   id="path4413" />
		<path
   style="fill:#FFFFFF;"
   d="M160.762,145.611c1.11,4.44-1.033,8.802-4.788,9.742l-9.628,2.409    c-3.753,0.939-7.698-1.899-8.809-6.339l-8.97-35.847c-1.111-4.44,1.032-8.802,4.787-9.742l9.629-2.409    c3.752-0.939,7.697,1.899,8.808,6.34L160.762,145.611z"
   id="path4415" />
		<path
   style="fill:#FFFFFF;"
   d="M203.645,138.335c1.395,5.571-0.518,10.853-4.271,11.791l-9.629,2.409    c-3.754,0.939-7.928-2.817-9.322-8.389l-11.258-44.987c-1.394-5.571,0.519-10.853,4.273-11.791l9.629-2.409    c3.753-0.938,7.928,2.818,9.322,8.389L203.645,138.335z"
   id="path4417" />
	</g>
	<g
   id="O">
		
		
	</g>
	<g
   id="W"
   style="display:none;">
		<path
   style="display:inline;fill:none;stroke:#FFFFFF;stroke-width:10;stroke-miterlimit:10;"
   d="M92.934,212.156    c0-1.65-0.418-2.988-0.933-2.988H75.838c-0.515,0-0.933,1.338-0.933,2.988v58.252c0,1.649,0.417,2.986,0.933,2.986h16.163    c0.515,0,0.933-1.337,0.933-2.986V212.156z"
   id="path4430" />
		<g
   style="display:inline;"
   id="g4436">
			<g
   id="g4434">
				<path
   style="fill:#FFFFFF;"
   d="M95.856,290.425c19.719-15.071,39.438-30.142,59.156-45.213c3.178-2.429,3.178-6.206,0-8.635      c-19.719-15.071-39.438-30.142-59.156-45.213c-3.126-2.39-7.523,0.882-7.523,4.317c0,30.142,0,60.284,0,90.426      c0,6.448,10,6.448,10,0c0-30.142,0-60.284,0-90.426c-2.508,1.439-5.016,2.878-7.523,4.317      c19.719,15.071,39.438,30.142,59.156,45.213c0-2.878,0-5.757,0-8.635c-19.719,15.071-39.438,30.142-59.156,45.213      C85.76,285.649,90.731,294.342,95.856,290.425z"
   id="path4432" />
			</g>
		</g>
	</g>
	<g
   id="SO"
   style="display:none;">
		<path
   style="display:inline;fill:none;stroke:#FFFFFF;stroke-width:10;stroke-miterlimit:10;"
   d="M96.555,271.84    c-1.167,1.166-1.817,2.407-1.453,2.771l11.429,11.429c0.364,0.364,1.605-0.286,2.772-1.452l41.19-41.191    c1.167-1.166,1.817-2.406,1.453-2.771l-11.429-11.429c-0.364-0.364-1.605,0.286-2.771,1.452L96.555,271.84z"
   id="path4439" />
		<g
   style="display:inline;"
   id="g4445">
			<g
   id="g4443">
				<path
   style="fill:#FFFFFF;"
   d="M148.565,214.266c-24.6-3.286-49.201-6.573-73.801-9.859c-2.463-0.329-5.329,2.537-5,5      c3.287,24.6,6.573,49.2,9.859,73.8c0.545,4.077,5.137,6.935,8.536,3.535c21.313-21.313,42.627-42.627,63.941-63.94      c4.563-4.563-2.507-11.635-7.071-7.07c-21.313,21.313-42.627,42.627-63.941,63.94c2.845,1.178,5.69,2.356,8.536,3.535      c-3.287-24.6-6.573-49.2-9.859-73.8c-1.667,1.667-3.333,3.333-5,5c24.6,3.286,49.201,6.573,73.801,9.859      C154.941,225.117,154.859,215.106,148.565,214.266z"
   id="path4441" />
			</g>
		</g>
	</g>
	<g
   id="SW_2_"
   style="display:none;">
		<path
   style="display:inline;fill:none;stroke:#FFFFFF;stroke-width:10;stroke-miterlimit:10;"
   d="M89.34,230.922    c-1.167-1.166-2.408-1.816-2.772-1.453l-11.429,11.43c-0.364,0.364,0.287,1.605,1.453,2.771l41.191,41.191    c1.166,1.166,2.407,1.816,2.771,1.452l11.429-11.429c0.364-0.364-0.286-1.605-1.453-2.771L89.34,230.922z"
   id="path4448" />
		<g
   style="display:inline;"
   id="g4454">
			<g
   id="g4452">
				<path
   style="fill:#FFFFFF;"
   d="M146.915,282.932c3.287-24.601,6.573-49.2,9.859-73.801c0.329-2.463-2.537-5.329-5-5      c-24.6,3.286-49.2,6.573-73.8,9.859c-4.077,0.545-6.935,5.137-3.536,8.535c21.314,21.314,42.627,42.628,63.941,63.941      c4.564,4.564,11.635-2.507,7.071-7.07c-21.314-21.314-42.627-42.628-63.941-63.941c-1.179,2.845-2.357,5.69-3.536,8.535      c24.6-3.286,49.2-6.573,73.8-9.859c-1.667-1.667-3.333-3.333-5-5c-3.287,24.601-6.573,49.2-9.859,73.801      C136.063,289.309,146.074,289.227,146.915,282.932z"
   id="path4450" />
			</g>
		</g>
	</g>
	<g
   id="S"
   style="display:none;">
		<path
   style="display:inline;fill:none;stroke:#FFFFFF;stroke-width:10;stroke-miterlimit:10;"
   d="M91.561,268.855    c-1.65,0-2.987,0.418-2.988,0.934l0,16.162c0,0.516,1.338,0.934,2.987,0.934h58.252c1.649,0,2.987-0.418,2.987-0.934l0-16.162    c0-0.516-1.337-0.934-2.986-0.933L91.561,268.855z"
   id="path4457" />
		<g
   style="display:inline;"
   id="g4463">
			<g
   id="g4461">
				<path
   style="fill:#FFFFFF;"
   d="M169.831,265.934c-15.071-19.719-30.142-39.438-45.213-59.156c-2.429-3.178-6.206-3.178-8.635,0      c-15.071,19.719-30.142,39.438-45.213,59.156c-2.39,3.127,0.882,7.523,4.317,7.523c30.142,0,60.285,0,90.427,0      c6.449,0,6.449-10,0-10c-30.142,0-60.285,0-90.427,0c1.439,2.508,2.878,5.016,4.317,7.523      c15.071-19.719,30.142-39.438,45.213-59.156c-2.878,0-5.756,0-8.635,0c15.071,19.719,30.142,39.438,45.213,59.156      C165.056,276.03,173.748,271.059,169.831,265.934z"
   id="path4459" />
			</g>
		</g>
	</g>
	<g
   id="NW"
   style="display:none;">
		<path
   style="display:inline;fill:none;stroke:#FFFFFF;stroke-width:10;stroke-miterlimit:10;"
   d="M89.34,264.625    c-1.167,1.166-2.408,1.816-2.772,1.453l-11.429-11.43c-0.364-0.364,0.287-1.605,1.453-2.771l41.191-41.191    c1.166-1.166,2.407-1.816,2.771-1.452l11.429,11.429c0.364,0.364-0.286,1.605-1.453,2.771L89.34,264.625z"
   id="path4466" />
		<g
   style="display:inline;"
   id="g4472">
			<g
   id="g4470">
				<path
   style="fill:#FFFFFF;"
   d="M136.915,212.615c3.287,24.601,6.573,49.2,9.859,73.801c1.667-1.667,3.333-3.333,5-5      c-24.6-3.286-49.2-6.573-73.8-9.859c1.179,2.845,2.357,5.69,3.536,8.535c21.313-21.313,42.627-42.627,63.941-63.941      c4.563-4.563-2.507-11.635-7.071-7.07c-21.313,21.313-42.627,42.627-63.941,63.941c-3.399,3.398-0.542,7.99,3.536,8.535      c24.6,3.286,49.2,6.573,73.8,9.859c2.463,0.329,5.329-2.537,5-5c-3.287-24.601-6.573-49.2-9.859-73.801      C146.074,206.32,136.063,206.238,136.915,212.615z"
   id="path4468" />
			</g>
		</g>
	</g>
	<g
   id="NO"
   style="display:none;">
		<path
   style="display:inline;fill:none;stroke:#FFFFFF;stroke-width:10;stroke-miterlimit:10;"
   d="M137.472,264.625    c1.167,1.166,2.408,1.816,2.772,1.453l11.429-11.43c0.364-0.364-0.287-1.605-1.453-2.771l-41.191-41.191    c-1.166-1.166-2.407-1.816-2.771-1.452l-11.429,11.429c-0.364,0.364,0.286,1.605,1.453,2.771L137.472,264.625z"
   id="path4475" />
		<g
   style="display:inline;"
   id="g4481">
			<g
   id="g4479">
				<path
   style="fill:#FFFFFF;"
   d="M79.898,212.615c-3.287,24.601-6.573,49.2-9.859,73.801c-0.329,2.463,2.537,5.329,5,5      c24.6-3.286,49.2-6.573,73.8-9.859c4.077-0.545,6.935-5.137,3.536-8.535c-21.314-21.314-42.627-42.628-63.941-63.941      c-4.564-4.564-11.635,2.507-7.071,7.07c21.314,21.314,42.627,42.628,63.941,63.941c1.179-2.845,2.357-5.69,3.536-8.535      c-24.6,3.286-49.2,6.573-73.8,9.859c1.667,1.667,3.333,3.333,5,5c3.287-24.601,6.573-49.2,9.859-73.801      C90.75,206.238,80.739,206.32,79.898,212.615z"
   id="path4477" />
			</g>
		</g>
	</g>
	<g
   id="N"
   style="display:none;">
		<path
   style="display:inline;fill:none;stroke:#FFFFFF;stroke-width:10;stroke-miterlimit:10;"
   d="M91.567,227.256    c-1.65,0-2.987-0.418-2.988-0.934l0-16.162c0-0.516,1.338-0.934,2.987-0.934h58.252c1.649,0,2.987,0.418,2.987,0.934l0,16.162    c0,0.516-1.337,0.934-2.986,0.933L91.567,227.256z"
   id="path4484" />
		<g
   style="display:inline;"
   id="g4490">
			<g
   id="g4488">
				<path
   style="fill:#FFFFFF;"
   d="M161.202,225.131c-15.071,19.719-30.142,39.438-45.213,59.156c2.878,0,5.756,0,8.635,0      c-15.071-19.719-30.142-39.438-45.213-59.156c-1.439,2.508-2.878,5.016-4.317,7.523c30.142,0,60.285,0,90.427,0      c6.449,0,6.449-10,0-10c-30.142,0-60.285,0-90.427,0c-3.435,0-6.707,4.396-4.317,7.523      c15.071,19.719,30.142,39.438,45.213,59.156c2.429,3.178,6.206,3.178,8.635,0c15.071-19.719,30.142-39.438,45.213-59.156      C173.754,225.053,165.062,220.081,161.202,225.131z"
   id="path4486" />
			</g>
		</g>
	</g>
</g>
<g
   id="Ebene_1">
</g>
</svg>