<?xml version="1.0" encoding="UTF-8" standalone="no"?>
<!-- Generator: Adobe Illustrator 16.0.0, SVG Export Plug-In . SVG Version: 6.00 Build 0)  -->

<svg
   xmlns:dc="http://purl.org/dc/elements/1.1/"
   xmlns:cc="http://creativecommons.org/ns#"
   xmlns:rdf="http://www.w3.org/1999/02/22-rdf-syntax-ns#"
   xmlns:svg="http://www.w3.org/2000/svg"
   xmlns="http://www.w3.org/2000/svg"
   xmlns:sodipodi="http://sodipodi.sourceforge.net/DTD/sodipodi-0.dtd"
   xmlns:inkscape="http://www.inkscape.org/namespaces/inkscape"
   version="1.1"
   x="0px"
   y="0px"
   width="361px"
   height="361px"
   viewBox="0 0 361 361"
   style="enable-background:new 0 0 361 361;"
   xml:space="preserve"
   id="svg4279"
   sodipodi:docname="weather_wind_no_wind.svg"
   inkscape:version="0.92.4 (5da689c313, 2019-01-14)"><metadata
   id="metadata4285"><rdf:RDF><cc:Work
       rdf:about=""><dc:format>image/svg+xml</dc:format><dc:type
         rdf:resource="http://purl.org/dc/dcmitype/StillImage" /><dc:title></dc:title></cc:Work></rdf:RDF></metadata><defs
   id="defs4283" /><sodipodi:namedview
   pagecolor="#ffffff"
   bordercolor="#666666"
   borderopacity="1"
   objecttolerance="10"
   gridtolerance="10"
   guidetolerance="10"
   inkscape:pageopacity="0"
   inkscape:pageshadow="2"
   inkscape:window-width="3840"
   inkscape:window-height="2028"
   id="namedview4281"
   showgrid="false"
   inkscape:snap-center="false"
   inkscape:zoom="3.6981097"
   inkscape:cx="84.844442"
   inkscape:cy="181.68178"
   inkscape:window-x="-16"
   inkscape:window-y="-16"
   inkscape:window-maximized="1"
   inkscape:current-layer="g4203" />
<g
   id="weather_x5F_wind_x5F_directions_x5F_w">
	<g
   id="g4203">
		<g
   id="g4183">
			<g
   id="g4181">
				<path
   style="fill:#FFFFFF;"
   d="M282.148,96.03c0,49.764,0,99.527,0,149.291c0,13.782,0,27.563,0,41.346c0,6.448,10,6.448,10,0      c0-49.764,0-99.527,0-149.291c0-13.782,0-27.564,0-41.346C292.148,89.582,282.148,89.582,282.148,96.03L282.148,96.03z"
   id="path4179" />
			</g>
		</g>
		
			<line
   style="fill:none;stroke:#ffffff;stroke-width:10;stroke-miterlimit:10"
   x1="185.36044"
   y1="258.13959"
   x2="221.18538"
   y2="135.39844"
   id="line4185" />
		
			<line
   style="fill:none;stroke:#ffffff;stroke-width:10;stroke-miterlimit:10"
   x1="214.96263"
   y1="269.64014"
   x2="285.35861"
   y2="165.32195"
   id="line4187" />
		<g
   id="g4195"
   transform="rotate(-50,280.99332,96.038406)">
			<polygon
   style="fill:#ffffff"
   points="230.725,143.917 212.398,75.523 277.083,94.843 "
   id="polygon4189" />
			<g
   id="g4193">
				<path
   style="fill:#ffffff"
   d="m 211.069,80.345 c 21.562,6.44 43.123,12.88 64.685,19.32 -0.735,-2.786 -1.471,-5.571 -2.206,-8.357 -15.453,16.358 -30.906,32.716 -46.358,49.074 2.785,0.735 5.571,1.471 8.356,2.207 -6.108,-22.798 -12.218,-45.596 -18.326,-68.394 -1.667,-6.223 -11.314,-3.579 -9.643,2.658 6.108,22.798 12.218,45.596 18.326,68.394 0.955,3.565 5.765,4.951 8.356,2.207 15.453,-16.358 30.906,-32.716 46.358,-49.074 2.606,-2.758 1.455,-7.264 -2.206,-8.357 -21.562,-6.44 -43.123,-12.88 -64.685,-19.32 -6.193,-1.851 -8.82,7.801 -2.657,9.642 z"
   id="path4191"
   inkscape:connector-curvature="0" />
			</g>
		</g>
		<path
   style="fill:#ffffff"
   d="m 221.08834,254.96411 c 3.33985,1.625 4.6766,5.76477 2.98302,9.24548 l -4.34336,8.92395 c -1.69383,3.4779 -5.77578,4.98066 -9.11564,3.35566 l -26.96895,-13.12497 c -3.34127,-1.62487 -4.67737,-5.76541 -2.98366,-9.24472 l 4.344,-8.92471 c 1.69447,-3.47867 5.77501,-4.98129 9.11626,-3.35643 z"
   id="path4197"
   inkscape:connector-curvature="0" />
		<path
   style="fill:#ffffff"
   d="m 241.68492,220.00561 c 4.11474,2.00366 6.07872,6.44913 4.38514,9.92985 l -4.34336,8.92396 c -1.69306,3.47854 -6.40289,4.67634 -10.51827,2.67345 l -33.2262,-16.17059 c -4.11537,-2.0029 -6.07936,-6.44838 -4.38578,-9.92909 l 4.344,-8.92472 c 1.69242,-3.47778 6.40226,-4.67559 10.5184,-2.67204 z"
   id="path4199"
   inkscape:connector-curvature="0" />
		<path
   style="fill:#ffffff"
   d="m 263.67584,182.4784 c 5.16433,2.51233 7.98092,7.37298 6.28709,10.85088 l -4.344,8.92472 c -1.69371,3.47931 -7.25397,4.26246 -12.41842,1.74872 l -41.69854,-20.29295 c -5.16367,-2.51311 -7.98027,-7.37376 -6.28579,-10.85242 l 4.344,-8.92473 c 1.69382,-3.47789 7.25473,-4.26182 12.41841,-1.74871 z"
   id="path4201"
   inkscape:connector-curvature="0" />
	</g>
	<g
   id="O_7_"
   style="display:none;">
		<path
   style="display:inline;fill:none;stroke:#FFFFFF;stroke-width:10;stroke-miterlimit:10;"
   d="M134.107,212.208    c0-1.649,0.418-2.987,0.933-2.987h16.163c0.515,0,0.933,1.338,0.933,2.987v58.253c0,1.648-0.417,2.986-0.933,2.986H135.04    c-0.515,0-0.933-1.338-0.933-2.986V212.208z"
   id="path4205" />
		<g
   style="display:inline;"
   id="g4211">
			<g
   id="g4209">
				<path
   style="fill:#FFFFFF;"
   d="M136.231,281.843c-19.719-15.071-39.438-30.142-59.156-45.213c0,2.878,0,5.757,0,8.635      c19.719-15.071,39.438-30.142,59.156-45.213c-2.508-1.439-5.016-2.878-7.523-4.317c0,30.142,0,60.284,0,90.426      c0,6.448,10,6.448,10,0c0-30.142,0-60.284,0-90.426c0-3.436-4.397-6.707-7.523-4.317      c-19.719,15.071-39.438,30.142-59.156,45.213c-3.178,2.429-3.178,6.206,0,8.635c19.719,15.071,39.438,30.142,59.156,45.213      C136.31,294.395,141.281,285.702,136.231,281.843z"
   id="path4207" />
			</g>
		</g>
	</g>
	
	<g
   id="SO_7_"
   style="display:none;">
		<path
   style="display:inline;fill:none;stroke:#FFFFFF;stroke-width:10;stroke-miterlimit:10;"
   d="M96.555,271.84    c-1.167,1.166-1.817,2.407-1.453,2.771l11.429,11.429c0.364,0.364,1.605-0.286,2.772-1.452l41.19-41.191    c1.167-1.166,1.817-2.406,1.453-2.771l-11.429-11.429c-0.364-0.364-1.605,0.286-2.771,1.452L96.555,271.84z"
   id="path4223" />
		<g
   style="display:inline;"
   id="g4229">
			<g
   id="g4227">
				<path
   style="fill:#FFFFFF;"
   d="M148.565,214.266c-24.6-3.286-49.201-6.573-73.801-9.859c-2.463-0.329-5.329,2.537-5,5      c3.287,24.6,6.573,49.2,9.859,73.8c0.545,4.077,5.137,6.935,8.536,3.535c21.313-21.313,42.627-42.627,63.941-63.94      c4.563-4.563-2.507-11.635-7.071-7.07c-21.313,21.313-42.627,42.627-63.941,63.94c2.845,1.178,5.69,2.356,8.536,3.535      c-3.287-24.6-6.573-49.2-9.859-73.8c-1.667,1.667-3.333,3.333-5,5c24.6,3.286,49.201,6.573,73.801,9.859      C154.941,225.117,154.859,215.106,148.565,214.266z"
   id="path4225" />
			</g>
		</g>
	</g>
	<g
   id="SW_8_"
   style="display:none;">
		<path
   style="display:inline;fill:none;stroke:#FFFFFF;stroke-width:10;stroke-miterlimit:10;"
   d="M89.34,230.922    c-1.167-1.166-2.408-1.816-2.772-1.453l-11.429,11.43c-0.364,0.364,0.287,1.605,1.453,2.771l41.191,41.191    c1.166,1.166,2.407,1.816,2.771,1.452l11.429-11.429c0.364-0.364-0.286-1.605-1.453-2.771L89.34,230.922z"
   id="path4232" />
		<g
   style="display:inline;"
   id="g4238">
			<g
   id="g4236">
				<path
   style="fill:#FFFFFF;"
   d="M146.915,282.932c3.287-24.601,6.573-49.2,9.859-73.801c0.329-2.463-2.537-5.329-5-5      c-24.6,3.286-49.2,6.573-73.8,9.859c-4.077,0.545-6.935,5.137-3.536,8.535c21.314,21.314,42.627,42.628,63.941,63.941      c4.564,4.564,11.635-2.507,7.071-7.07c-21.314-21.314-42.627-42.628-63.941-63.941c-1.179,2.845-2.357,5.69-3.536,8.535      c24.6-3.286,49.2-6.573,73.8-9.859c-1.667-1.667-3.333-3.333-5-5c-3.287,24.601-6.573,49.2-9.859,73.801      C136.063,289.309,146.074,289.227,146.915,282.932z"
   id="path4234" />
			</g>
		</g>
	</g>
	<g
   id="S_7_"
   style="display:none;">
		<path
   style="display:inline;fill:none;stroke:#FFFFFF;stroke-width:10;stroke-miterlimit:10;"
   d="M91.561,268.855    c-1.65,0-2.987,0.418-2.988,0.934l0,16.162c0,0.516,1.338,0.934,2.987,0.934h58.252c1.649,0,2.987-0.418,2.987-0.934l0-16.162    c0-0.516-1.337-0.934-2.986-0.933L91.561,268.855z"
   id="path4241" />
		<g
   style="display:inline;"
   id="g4247">
			<g
   id="g4245">
				<path
   style="fill:#FFFFFF;"
   d="M169.831,265.934c-15.071-19.719-30.142-39.438-45.213-59.156c-2.429-3.178-6.206-3.178-8.635,0      c-15.071,19.719-30.142,39.438-45.213,59.156c-2.39,3.127,0.882,7.523,4.317,7.523c30.142,0,60.285,0,90.427,0      c6.449,0,6.449-10,0-10c-30.142,0-60.285,0-90.427,0c1.439,2.508,2.878,5.016,4.317,7.523      c15.071-19.719,30.142-39.438,45.213-59.156c-2.878,0-5.756,0-8.635,0c15.071,19.719,30.142,39.438,45.213,59.156      C165.056,276.03,173.748,271.059,169.831,265.934z"
   id="path4243" />
			</g>
		</g>
	</g>
	<g
   id="NW_7_"
   style="display:none;">
		<path
   style="display:inline;fill:none;stroke:#FFFFFF;stroke-width:10;stroke-miterlimit:10;"
   d="M89.34,264.625    c-1.167,1.166-2.408,1.816-2.772,1.453l-11.429-11.43c-0.364-0.364,0.287-1.605,1.453-2.771l41.191-41.191    c1.166-1.166,2.407-1.816,2.771-1.452l11.429,11.429c0.364,0.364-0.286,1.605-1.453,2.771L89.34,264.625z"
   id="path4250" />
		<g
   style="display:inline;"
   id="g4256">
			<g
   id="g4254">
				<path
   style="fill:#FFFFFF;"
   d="M136.915,212.615c3.287,24.601,6.573,49.2,9.859,73.801c1.667-1.667,3.333-3.333,5-5      c-24.6-3.286-49.2-6.573-73.8-9.859c1.179,2.845,2.357,5.69,3.536,8.535c21.313-21.313,42.627-42.627,63.941-63.941      c4.563-4.563-2.507-11.635-7.071-7.07c-21.313,21.313-42.627,42.627-63.941,63.941c-3.399,3.398-0.542,7.99,3.536,8.535      c24.6,3.286,49.2,6.573,73.8,9.859c2.463,0.329,5.329-2.537,5-5c-3.287-24.601-6.573-49.2-9.859-73.801      C146.074,206.32,136.063,206.238,136.915,212.615z"
   id="path4252" />
			</g>
		</g>
	</g>
	<g
   id="NO_7_"
   style="display:none;">
		<path
   style="display:inline;fill:none;stroke:#FFFFFF;stroke-width:10;stroke-miterlimit:10;"
   d="M137.472,264.625    c1.167,1.166,2.408,1.816,2.772,1.453l11.429-11.43c0.364-0.364-0.287-1.605-1.453-2.771l-41.191-41.191    c-1.166-1.166-2.407-1.816-2.771-1.452l-11.429,11.429c-0.364,0.364,0.286,1.605,1.453,2.771L137.472,264.625z"
   id="path4259" />
		<g
   style="display:inline;"
   id="g4265">
			<g
   id="g4263">
				<path
   style="fill:#FFFFFF;"
   d="M79.898,212.615c-3.287,24.601-6.573,49.2-9.859,73.801c-0.329,2.463,2.537,5.329,5,5      c24.6-3.286,49.2-6.573,73.8-9.859c4.077-0.545,6.935-5.137,3.536-8.535c-21.314-21.314-42.627-42.628-63.941-63.941      c-4.564-4.564-11.635,2.507-7.071,7.07c21.314,21.314,42.627,42.628,63.941,63.941c1.179-2.845,2.357-5.69,3.536-8.535      c-24.6,3.286-49.2,6.573-73.8,9.859c1.667,1.667,3.333,3.333,5,5c3.287-24.601,6.573-49.2,9.859-73.801      C90.75,206.238,80.739,206.32,79.898,212.615z"
   id="path4261" />
			</g>
		</g>
	</g>
	<g
   id="N_7_"
   style="display:none;">
		<path
   style="display:inline;fill:none;stroke:#FFFFFF;stroke-width:10;stroke-miterlimit:10;"
   d="M91.567,227.256    c-1.65,0-2.987-0.418-2.988-0.934l0-16.162c0-0.516,1.338-0.934,2.987-0.934h58.252c1.649,0,2.987,0.418,2.987,0.934l0,16.162    c0,0.516-1.337,0.934-2.986,0.933L91.567,227.256z"
   id="path4268" />
		<g
   style="display:inline;"
   id="g4274">
			<g
   id="g4272">
				<path
   style="fill:#FFFFFF;"
   d="M161.202,225.131c-15.071,19.719-30.142,39.438-45.213,59.156c2.878,0,5.756,0,8.635,0      c-15.071-19.719-30.142-39.438-45.213-59.156c-1.439,2.508-2.878,5.016-4.317,7.523c30.142,0,60.285,0,90.427,0      c6.449,0,6.449-10,0-10c-30.142,0-60.285,0-90.427,0c-3.435,0-6.707,4.396-4.317,7.523      c15.071,19.719,30.142,39.438,45.213,59.156c2.429,3.178,6.206,3.178,8.635,0c15.071-19.719,30.142-39.438,45.213-59.156      C173.754,225.053,165.062,220.081,161.202,225.131z"
   id="path4270" />
			</g>
		</g>
	</g>
</g>
<g
   id="Ebene_1">
</g>
</svg>